# File created by Blade
# Date/Time:  Tue Jan 27 17:21:46 2015
#---------------------------------------------------------
:version 1.10
:name HOM
:units
  mass 1.0
  length 1.000000
  angle deg
:documentation
     Acclaim Skeleton File
:root
   axis xyz
   order TX TY TZ RX RY RZ
   position 0.000000 0.000000 0.000000
   orientation 0 0 0
:bonedata
   begin
      id 1
      name Spine_dum
      direction 0.000000 1.000000 0.000000
      length 7.539951
      axis 0.0 0.0 0.0 xyz
   end
   begin
      id 2
      name LeftUpLeg_dum
      direction 1.000000 0.000000 0.000000
      length 3.345476
      axis 0.0 0.0 0.0 xyz
   end
   begin
      id 3
      name RightUpLeg_dum
      direction -1.000000 0.000000 0.000000
      length 3.345476
      axis 0.0 0.0 0.0 xyz
   end
   begin
      id 4
      name Spine
      direction 0.000000 1.000000 0.000000
      length 0.000000
      axis 0.0 0.0 0.0 xyz
      dof rx ry rz
   end
   begin
      id 5
      name Spine_dum1
      direction 0.000000 1.000000 0.000000
      length 15.093809
      axis 0.0 0.0 0.0 xyz
   end
   begin
      id 6
      name Spine_dum2
      direction 0.000000 1.000000 0.000000
      length 9.738928
      axis 0.0 0.0 0.0 xyz
   end
   begin
      id 7
      name Spine_dum3
      direction 0.000000 1.000000 0.000000
      length 9.738928
      axis 0.0 0.0 0.0 xyz
   end
   begin
      id 8
      name Head
      direction 0.000000 1.000000 0.000000
      length 4.527550
      axis 0.0 0.0 0.0 xyz
      dof rx ry rz
   end
   begin
      id 9
      name LeftShoulder
      direction 1.000000 0.000000 0.000000
      length 7.084015
      axis 0.0 0.0 -90.0 xyz
      dof rx ry rz
   end
   begin
      id 10
      name LeftArm
      direction 1.000000 0.000000 0.000000
      length 10.259319
      axis 0.0 0.0 -90.0 xyz
      dof rx ry rz
   end
   begin
      id 11
      name LeftForeArm
      direction 1.000000 0.000000 0.000000
      length 9.896984
      axis 0.0 0.0 -90.0 xyz
      dof ry rz rx
   end
   begin
      id 12
      name LeftHand
      direction 0.000000 0.000000 0.000000
      length 0.000000
      axis 0.0 0.0 -90.0 xyz
      dof rx ry rz
   end
   begin
      id 13
      name LeftHand_dum1
      direction 0.000000 0.000000 0.000000
      length 0.000000
      axis 0.0 0.0 -90.0 xyz
   end
   begin
      id 14
      name LeftHand_dum2
      direction 1.000000 0.000000 0.000000
      length 3.937000
      axis 0.0 0.0 -90.0 xyz
   end
   begin
      id 15
      name LeftHandThumb1
      direction 0.000000 0.000000 1.000000
      length 3.937000
      axis 0.0 0.0 -90.0 xyz
      dof rx rz ry
   end
   begin
      id 16
      name RightShoulder
      direction -1.000000 0.000000 0.000000
      length 7.084015
      axis 0.0 0.0 90.0 xyz
      dof rx ry rz
   end
   begin
      id 17
      name RightArm
      direction -1.000000 0.000000 0.000000
      length 10.259319
      axis 0.0 0.0 90.0 xyz
      dof rx ry rz
   end
   begin
      id 18
      name RightForeArm
      direction -1.000000 0.000000 0.000000
      length 9.896984
      axis 0.0 0.0 90.0 xyz
      dof ry rz rx
   end
   begin
      id 19
      name RightHand
      direction 0.000000 0.000000 0.000000
      length 0.000000
      axis 0.0 0.0 90.0 xyz
      dof rx ry rz
   end
   begin
      id 20
      name RightHand_dum1
      direction 0.000000 0.000000 0.000000
      length 0.000000
      axis 0.0 0.0 90.0 xyz
   end
   begin
      id 21
      name RightHand_dum2
      direction -1.000000 0.000000 0.000000
      length 3.937000
      axis 0.0 0.0 90.0 xyz
   end
   begin
      id 22
      name RightHandThumb1
      direction 0.000000 0.000000 1.000000
      length 3.937000
      axis 0.0 0.0 90.0 xyz
      dof rx rz ry
   end
   begin
      id 23
      name LeftUpLeg
      direction 0.000000 -1.000000 0.000000
      length 19.114733
      axis 0.0 0.0 0.0 xyz
      dof rx ry rz
   end
   begin
      id 24
      name LeftLeg
      direction 0.000000 -1.000000 0.000000
      length 16.045604
      axis 0.0 0.0 0.0 xyz
      dof rx ry rz
   end
   begin
      id 25
      name LeftFoot
      direction 0.000000 -0.258819 0.965926
      length 5.543155
      axis 15.0 0.0 0.0 xyz
      dof rx ry rz
   end
   begin
      id 26
      name LeftToeBase
      direction 0.000000 0.000000 1.000000
      length 2.952750
      axis 0.0 0.0 0.0 xyz
      dof rx ry rz
   end
   begin
      id 27
      name RightUpLeg
      direction 0.000000 -1.000000 0.000000
      length 19.114733
      axis 0.0 0.0 0.0 xyz
      dof rx ry rz
   end
   begin
      id 28
      name RightLeg
      direction 0.000000 -1.000000 0.000000
      length 16.045604
      axis 0.0 0.0 0.0 xyz
      dof rx ry rz
   end
   begin
      id 29
      name RightFoot
      direction 0.000000 -0.258819 0.965926
      length 5.543155
      axis 15.0 0.0 0.0 xyz
      dof rx ry rz
   end
   begin
      id 30
      name RightToeBase
      direction 0.000000 0.000000 1.000000
      length 2.952750
      axis 0.0 0.0 0.0 xyz
      dof rx ry rz
   end
:hierarchy
   begin
      root Spine_dum LeftUpLeg_dum RightUpLeg_dum
      Spine_dum Spine
      LeftUpLeg_dum LeftUpLeg
      RightUpLeg_dum RightUpLeg
      Spine Spine_dum1 Spine_dum2 Spine_dum3
      Spine_dum1 Head
      Spine_dum2 LeftShoulder
      Spine_dum3 RightShoulder
      LeftShoulder LeftArm
      LeftArm LeftForeArm
      LeftForeArm LeftHand
      LeftHand LeftHand_dum1 LeftHand_dum2
      LeftHand_dum1 LeftHandThumb1
      RightShoulder RightArm
      RightArm RightForeArm
      RightForeArm RightHand
      RightHand RightHand_dum1 RightHand_dum2
      RightHand_dum1 RightHandThumb1
      LeftUpLeg LeftLeg
      LeftLeg LeftFoot
      LeftFoot LeftToeBase
      RightUpLeg RightLeg
      RightLeg RightFoot
      RightFoot RightToeBase
   end

# File created by Blade
# Date/Time:  Tue Jan 27 17:21:37 2015
# Frame Rate: 120.000 fps
#------------------------------------------------------
:FULLY-SPECIFIED
:DEGREES
3166
root -2.942684 36.393288 0.827682 31.977191 56.238411 23.311344
Spine -3.768013 -7.393721 -0.805077
Head -0.443978 -0.676872 -5.107124
LeftShoulder 2.966827 -16.435003 7.280969
LeftArm 12.856534 -18.595805 -54.327643
LeftForeArm -0.781747 -0.000000 65.232654
LeftHand -13.917895 0.000000 45.664123
LeftHandThumb1 -26.253704 0.000000 33.147579
RightShoulder -7.530660 -17.476772 -2.087474
RightArm 4.105101 -16.137202 54.384552
RightForeArm 186.279217 -0.000000 30.215643
RightHand 0.812288 -0.000000 -0.737822
RightHandThumb1 -24.326973 -0.000000 -32.862282
LeftUpLeg -52.243752 48.699807 -9.136384
LeftLeg 114.913331 -0.000000 -0.000000
LeftFoot -4.175589 3.059297 -33.124469
LeftToeBase 14.345894 -0.000000 -0.000000
RightUpLeg -29.127270 -29.611338 5.342971
RightLeg 30.819798 -0.000000 -0.000000
RightFoot -27.399876 -24.649382 8.875199
RightToeBase -1.759801 -0.000000 0.000000
3167
root -2.941264 36.386834 0.819265 31.835055 56.241647 23.214189
Spine -3.667842 -7.307430 -0.635505
Head -0.536154 -0.583796 -5.286704
LeftShoulder 2.952378 -16.432915 7.220630
LeftArm 12.839062 -18.694465 -54.417244
LeftForeArm -0.793263 -0.000000 65.239394
LeftHand -13.939373 -0.000000 45.773219
LeftHandThumb1 -26.253704 0.000000 33.147579
RightShoulder -7.473077 -17.474711 -2.185706
RightArm 4.079097 -16.029475 54.442978
RightForeArm 186.455142 -0.000000 30.216117
RightHand 0.713859 -0.000000 -0.691804
RightHandThumb1 -24.326973 -0.000000 -32.862282
LeftUpLeg -51.881689 48.383513 -8.294549
LeftLeg 113.891814 -0.000000 -0.000000
LeftFoot -3.261335 2.985798 -33.113136
LeftToeBase 14.442374 -0.000000 -0.000000
RightUpLeg -29.054977 -29.502408 5.315669
RightLeg 30.842876 -0.000000 -0.000000
RightFoot -27.440978 -24.705566 8.942060
RightToeBase -1.736852 -0.000000 0.000000
3168
root -2.938535 36.381201 0.812532 31.593187 56.215539 23.066973
Spine -3.484218 -7.174177 -0.459446
Head -0.623231 -0.513269 -5.483337
LeftShoulder 2.949197 -16.476481 7.146391
LeftArm 12.791867 -18.787904 -54.482380
LeftForeArm -0.768010 -0.000000 65.234465
LeftHand -13.952969 -0.000000 45.656181
LeftHandThumb1 -26.253704 0.000000 33.147579
RightShoulder -7.406895 -17.461692 -2.294189
RightArm 4.073798 -15.958903 54.483485
RightForeArm 186.611996 -0.000000 30.222984
RightHand 0.698590 -0.000000 -0.596713
RightHandThumb1 -24.326973 -0.000000 -32.862282
LeftUpLeg -51.391528 48.091079 -7.316375
LeftLeg 112.785976 -0.000000 -0.000000
LeftFoot -2.236681 2.646999 -33.234400
LeftToeBase 14.404654 -0.000000 -0.000000
RightUpLeg -28.910030 -29.383981 5.272948
RightLeg 30.853660 -0.000000 -0.000000
RightFoot -27.470412 -24.737469 8.987977
RightToeBase -1.683723 -0.000000 0.000000
3169
root -2.941109 36.379678 0.802491 31.528046 56.209671 23.069308
Spine -3.356655 -7.110257 -0.377849
Head -0.695460 -0.456746 -5.647666
LeftShoulder 2.936209 -16.475704 7.094486
LeftArm 12.772070 -18.883211 -54.524383
LeftForeArm -0.770950 -0.000000 65.210984
LeftHand -13.930416 -0.000000 45.712448
LeftHandThumb1 -26.253704 0.000000 33.147579
RightShoulder -7.318871 -17.447087 -2.367087
RightArm 4.063801 -15.895986 54.524187
RightForeArm 186.729227 -0.000000 30.240782
RightHand 0.744154 -0.000000 -0.431256
RightHandThumb1 -24.326973 -0.000000 -32.862282
LeftUpLeg -50.994947 47.661469 -6.449680
LeftLeg 111.557176 -0.000000 -0.000000
LeftFoot -1.193686 2.322784 -33.034101
LeftToeBase 14.752349 -0.000000 -0.000000
RightUpLeg -28.834826 -29.312403 5.194406
RightLeg 30.878577 -0.000000 -0.000000
RightFoot -27.491726 -24.736189 9.009035
RightToeBase -1.642472 -0.000000 0.000000
3170
root -2.943018 36.378547 0.793267 31.442482 56.183870 23.087698
Spine -3.181117 -7.021865 -0.338647
Head -0.769728 -0.415378 -5.774321
LeftShoulder 2.933810 -16.483810 7.043183
LeftArm 12.775361 -18.952552 -54.545809
LeftForeArm -0.639391 -0.000000 65.147063
LeftHand -14.026587 -0.000000 45.701358
LeftHandThumb1 -26.253704 0.000000 33.147579
RightShoulder -7.216638 -17.435296 -2.429732
RightArm 4.051132 -15.797109 54.578863
RightForeArm 186.829635 -0.000000 30.271920
RightHand 0.712146 -0.000000 -0.311205
RightHandThumb1 -24.326973 -0.000000 -32.862282
LeftUpLeg -50.526849 47.211496 -5.530623
LeftLeg 110.225409 -0.000000 -0.000000
LeftFoot -0.097200 1.900805 -33.563599
LeftToeBase 14.936162 -0.000000 -0.000000
RightUpLeg -28.730824 -29.229875 5.098144
RightLeg 30.883264 -0.000000 -0.000000
RightFoot -27.524926 -24.831728 9.105619
RightToeBase -1.659863 -0.000000 0.000000
3171
root -2.944693 36.379732 0.780000 31.443443 56.153307 23.170012
Spine -3.038668 -6.940773 -0.321724
Head -0.859599 -0.399851 -5.925517
LeftShoulder 2.925114 -16.498270 6.963169
LeftArm 12.750075 -19.035879 -54.515203
LeftForeArm -0.875039 -0.000000 65.149671
LeftHand -13.907246 -0.000000 45.840083
LeftHandThumb1 -26.253704 0.000000 33.147579
RightShoulder -7.173303 -17.435460 -2.499976
RightArm 4.116030 -15.751397 54.609601
RightForeArm 186.961588 -0.000000 30.300266
RightHand 0.656400 -0.000000 -0.357390
RightHandThumb1 -24.326973 -0.000000 -32.862282
LeftUpLeg -50.127184 46.725560 -4.685673
LeftLeg 108.783454 -0.000000 -0.000000
LeftFoot 1.012519 1.525643 -33.968783
LeftToeBase 15.273246 -0.000000 -0.000000
RightUpLeg -28.654185 -29.145531 4.966233
RightLeg 30.882837 -0.000000 -0.000000
RightFoot -27.534088 -24.903386 9.110869
RightToeBase -1.636967 -0.000000 0.000000
